<?xml version="1.0" standalone="no"?><svg xmlns="http://www.w3.org/2000/svg" viewBox="0 0 1440 320"><path fill="#f0eff1" fill-opacity="1" d="M0,192L21.8,165.3C43.6,139,87,85,131,106.7C174.5,128,218,224,262,266.7C305.5,309,349,299,393,261.3C436.4,224,480,160,524,154.7C567.3,149,611,203,655,197.3C698.2,192,742,128,785,90.7C829.1,53,873,43,916,37.3C960,32,1004,32,1047,58.7C1090.9,85,1135,139,1178,149.3C1221.8,160,1265,128,1309,122.7C1352.7,117,1396,139,1418,149.3L1440,160L1440,320L1418.2,320C1396.4,320,1353,320,1309,320C1265.5,320,1222,320,1178,320C1134.5,320,1091,320,1047,320C1003.6,320,960,320,916,320C872.7,320,829,320,785,320C741.8,320,698,320,655,320C610.9,320,567,320,524,320C480,320,436,320,393,320C349.1,320,305,320,262,320C218.2,320,175,320,131,320C87.3,320,44,320,22,320L0,320Z"></path></svg>