<?xml version="1.0" standalone="no"?><svg xmlns="http://www.w3.org/2000/svg" viewBox="0 0 1440 320"><path fill="#e3e0c7" fill-opacity="1" d="M0,128L18.5,112C36.9,96,74,64,111,85.3C147.7,107,185,181,222,197.3C258.5,213,295,171,332,133.3C369.2,96,406,64,443,64C480,64,517,96,554,128C590.8,160,628,192,665,218.7C701.5,245,738,267,775,240C812.3,213,849,139,886,117.3C923.1,96,960,128,997,165.3C1033.8,203,1071,245,1108,266.7C1144.6,288,1182,288,1218,272C1255.4,256,1292,224,1329,186.7C1366.2,149,1403,107,1422,85.3L1440,64L1440,320L1421.5,320C1403.1,320,1366,320,1329,320C1292.3,320,1255,320,1218,320C1181.5,320,1145,320,1108,320C1070.8,320,1034,320,997,320C960,320,923,320,886,320C849.2,320,812,320,775,320C738.5,320,702,320,665,320C627.7,320,591,320,554,320C516.9,320,480,320,443,320C406.2,320,369,320,332,320C295.4,320,258,320,222,320C184.6,320,148,320,111,320C73.8,320,37,320,18,320L0,320Z"></path></svg>