<?xml version="1.0" standalone="no"?><svg xmlns="http://www.w3.org/2000/svg" viewBox="0 0 1440 320"><path fill="#f8f6ef" fill-opacity="1" d="M0,288L17.1,245.3C34.3,203,69,117,103,96C137.1,75,171,117,206,144C240,171,274,181,309,181.3C342.9,181,377,171,411,160C445.7,149,480,139,514,117.3C548.6,96,583,64,617,74.7C651.4,85,686,139,720,149.3C754.3,160,789,128,823,122.7C857.1,117,891,139,926,128C960,117,994,75,1029,58.7C1062.9,43,1097,53,1131,80C1165.7,107,1200,149,1234,160C1268.6,171,1303,149,1337,128C1371.4,107,1406,85,1423,74.7L1440,64L1440,320L1422.9,320C1405.7,320,1371,320,1337,320C1302.9,320,1269,320,1234,320C1200,320,1166,320,1131,320C1097.1,320,1063,320,1029,320C994.3,320,960,320,926,320C891.4,320,857,320,823,320C788.6,320,754,320,720,320C685.7,320,651,320,617,320C582.9,320,549,320,514,320C480,320,446,320,411,320C377.1,320,343,320,309,320C274.3,320,240,320,206,320C171.4,320,137,320,103,320C68.6,320,34,320,17,320L0,320Z"></path></svg>