<?xml version="1.0" standalone="no"?><svg xmlns="http://www.w3.org/2000/svg" viewBox="0 0 1440 320"><path fill="#F8F8F2" fill-opacity="1" d="M0,64L16,74.7C32,85,64,107,96,144C128,181,160,235,192,261.3C224,288,256,288,288,277.3C320,267,352,245,384,229.3C416,213,448,203,480,208C512,213,544,235,576,250.7C608,267,640,277,672,277.3C704,277,736,267,768,250.7C800,235,832,213,864,186.7C896,160,928,128,960,101.3C992,75,1024,53,1056,85.3C1088,117,1120,203,1152,234.7C1184,267,1216,245,1248,240C1280,235,1312,245,1344,213.3C1376,181,1408,107,1424,69.3L1440,32L1440,320L1424,320C1408,320,1376,320,1344,320C1312,320,1280,320,1248,320C1216,320,1184,320,1152,320C1120,320,1088,320,1056,320C1024,320,992,320,960,320C928,320,896,320,864,320C832,320,800,320,768,320C736,320,704,320,672,320C640,320,608,320,576,320C544,320,512,320,480,320C448,320,416,320,384,320C352,320,320,320,288,320C256,320,224,320,192,320C160,320,128,320,96,320C64,320,32,320,16,320L0,320Z"></path></svg>